<?xml version="1.0" ?><!DOCTYPE svg  PUBLIC '-//W3C//DTD SVG 1.1//EN'  'http://www.w3.org/Graphics/SVG/1.1/DTD/svg11.dtd'><svg enable-background="new 0 0 512 512" height="512px" id="Layer_1" version="1.1" viewBox="0 0 512 512" width="512px" xml:space="preserve" xmlns="http://www.w3.org/2000/svg" xmlns:xlink="http://www.w3.org/1999/xlink"><path d="M344.302,116.256h-34.548v-3.658c0-13.601-11.027-24.634-24.627-24.634h-58.248c-13.601,0-24.624,11.033-24.624,24.634  v3.658h-34.552c-13.601,0-24.628,11.023-24.628,24.624v49.172v28.292v181.06c0,13.601,11.028,24.633,24.628,24.633h176.599  c13.602,0,24.624-11.032,24.624-24.633v-181.06v-28.292V140.88C368.926,127.279,357.904,116.256,344.302,116.256z M167.703,140.88  h59.176v-28.282h58.248v28.282h59.175v49.172V211.5H167.703v-21.448V140.88z"/></svg>